<svg width="581" height="553" viewBox="0 0 581 553" fill="none" xmlns="http://www.w3.org/2000/svg">
<path d="M547 276.5C547 429.207 424.55 553 273.5 553C122.45 553 0 429.207 0 276.5C0 123.793 122.45 0 273.5 0C424.55 0 547 123.793 547 276.5Z" fill="url(#paint0_linear_2_16)"/>
<path d="M73 363C69.4 357.8 66.8333 343.167 66 336.5C70 326.9 77.6667 323.5 81 323H115.5C130.7 326.6 136.833 338.833 138 344.5C156 382.5 189.5 415.333 204 427C211.2 431.8 216.333 441.667 218 446V480.5C212.4 488.5 203.667 487.833 200 486.5C194.167 484.167 179.1 477.7 165.5 470.5C148.5 461.5 115 430.5 100.5 412.5C86 394.5 77.5 369.5 73 363Z" fill="white"/>
<path d="M475 362.999C478.6 357.799 481.167 343.166 482 336.5C478 326.9 470.333 323.5 467 323H432.5C417.3 326.6 411.167 338.833 410 344.499C392 382.498 358.5 415.331 344 426.997C336.8 431.797 331.667 441.663 330 445.996V480.495C335.6 488.495 344.333 487.829 348 486.495C353.833 484.162 368.9 477.695 382.5 470.496C399.5 461.496 433 430.497 447.5 412.497C462 394.498 470.5 369.499 475 362.999Z" fill="white"/>
<path d="M66.7522 208.257C74.2522 179.591 104.452 114.657 165.252 84.2572C226.052 53.8572 278.252 53.9238 296.752 57.7572C319.585 60.4238 371.5 75.5 393.752 93.7572C424.64 119.099 436.381 121.135 472 187.757C501 242 457.419 231.257 432.752 222.257L315.252 187.757C297.752 183.424 254.452 177.757 221.252 189.757C188.052 201.757 124.419 219.757 96.7522 227.257C84.5855 229.757 61.5522 229.457 66.7522 208.257Z" fill="white"/>
<path d="M225.912 332C216.141 332 208.909 329.675 204.216 325.024C199.565 320.331 197.24 313.099 197.24 303.328V273.888C197.24 264.032 199.565 256.779 204.216 252.128C208.867 247.435 216.056 245.131 225.784 245.216H241.272C249.293 245.216 255.416 246.88 259.64 250.208C263.864 253.493 266.317 258.699 267 265.824C267.256 267.616 266.915 268.981 265.976 269.92C265.037 270.859 263.672 271.328 261.88 271.328C258.637 271.328 256.76 269.536 256.248 265.952C255.821 262.027 254.456 259.381 252.152 258.016C249.891 256.651 246.264 255.968 241.272 255.968H225.784C221.261 255.925 217.699 256.437 215.096 257.504C212.536 258.571 210.701 260.427 209.592 263.072C208.525 265.675 207.992 269.28 207.992 273.888V303.328C207.992 307.893 208.525 311.477 209.592 314.08C210.701 316.683 212.557 318.539 215.16 319.648C217.763 320.715 221.347 321.248 225.912 321.248H241.272C246.264 321.248 249.891 320.565 252.152 319.2C254.456 317.792 255.821 315.147 256.248 311.264C256.76 307.68 258.637 305.888 261.88 305.888C263.672 305.888 265.037 306.357 265.976 307.296C266.915 308.235 267.256 309.6 267 311.392C266.317 318.56 263.864 323.787 259.64 327.072C255.416 330.357 249.293 332 241.272 332H225.912ZM315.037 332C305.266 332 298.034 329.675 293.341 325.024C288.69 320.331 286.365 313.099 286.365 303.328V273.888C286.365 264.032 288.69 256.779 293.341 252.128C297.992 247.435 305.181 245.131 314.909 245.216H330.397C338.418 245.216 344.541 246.88 348.765 250.208C352.989 253.493 355.442 258.699 356.125 265.824C356.381 267.616 356.04 268.981 355.101 269.92C354.162 270.859 352.797 271.328 351.005 271.328C347.762 271.328 345.885 269.536 345.373 265.952C344.946 262.027 343.581 259.381 341.277 258.016C339.016 256.651 335.389 255.968 330.397 255.968H314.909C310.386 255.925 306.824 256.437 304.221 257.504C301.661 258.571 299.826 260.427 298.717 263.072C297.65 265.675 297.117 269.28 297.117 273.888V303.328C297.117 307.893 297.65 311.477 298.717 314.08C299.826 316.683 301.682 318.539 304.285 319.648C306.888 320.715 310.472 321.248 315.037 321.248H330.397C335.389 321.248 339.016 320.565 341.277 319.2C343.581 317.792 344.946 315.147 345.373 311.264C345.885 307.68 347.762 305.888 351.005 305.888C352.797 305.888 354.162 306.357 355.101 307.296C356.04 308.235 356.381 309.6 356.125 311.392C355.442 318.56 352.989 323.787 348.765 327.072C344.541 330.357 338.418 332 330.397 332H315.037Z" fill="white"/>
<defs>
<linearGradient id="paint0_linear_2_16" x1="127.5" y1="48" x2="462" y2="476.5" gradientUnits="userSpaceOnUse">
<stop stop-color="#084BAF"/>
<stop offset="0.351135" stop-color="#0A7D94"/>
<stop offset="1" stop-color="#0EBE72"/>
</linearGradient>
</defs>
</svg>
